HIERARCHY
ROOT Hips
{
	OFFSET 0.000000 0.000000 0.000000 
	CHANNELS 6 Xposition Yposition Zposition Yrotation Zrotation Xrotation 
	JOINT Lumbar
	{
		OFFSET 0.000000 0.000000 0.000000 
		CHANNELS 3 Zrotation Xrotation Yrotation
		JOINT Neck
		{
			OFFSET 0.000000 0.445665 0.000000 
			CHANNELS 3 Zrotation Xrotation Yrotation
			End Site
			{
				OFFSET 0.000000 0.227535 0.000000 
			}
		}
		JOINT RightShoulder
		{
			OFFSET 0.019635 0.377685 0.194865 
			CHANNELS 3 Zrotation Xrotation Yrotation
			JOINT RightElbow
			{
				OFFSET 0.000000 -0.243375 0.000000 
				CHANNELS 2 Zrotation Yrotation
				JOINT RightWrist
				{
					OFFSET 0.000000 -0.264825 0.000000 
					CHANNELS 2 Zrotation Xrotation
					End Site
					{
						OFFSET 0.006600 -0.176220 0.000990 
					}
				}
			}
		}
		JOINT LeftShoulder
		{
			OFFSET 0.019635 0.377685 -0.194865 
			CHANNELS 3 Zrotation Xrotation Yrotation
			JOINT LeftElbow
			{
				OFFSET 0.000000 -0.243375 0.000000 
				CHANNELS 2 Zrotation Yrotation
				JOINT LeftWrist
				{
					OFFSET 0.000000 -0.264825 0.000000 
					CHANNELS 2 Zrotation Xrotation
					End Site
					{
						OFFSET 0.006600 -0.176220 -0.000990 
					}
				}
			}
		}
	}
	JOINT RightHip
	{
		OFFSET 0.052140 -0.069960 0.075570 
		CHANNELS 3 Zrotation Xrotation Yrotation
		JOINT RightKnee
		{
			OFFSET 0.000000 -0.402270 0.000000 
			CHANNELS 1 Zrotation
			JOINT RightAnkle
			{
				OFFSET 0.000000 -0.404085 0.000000 
				CHANNELS 3 Zrotation Xrotation Yrotation
				End Site
				{
					OFFSET 0.204105 -0.089430 0.008415 
				}
			}
		}
	}
	JOINT LeftHip
	{
		OFFSET 0.052140 -0.069960 -0.075570 
		CHANNELS 3 Zrotation Xrotation Yrotation
		JOINT LeftKnee
		{
			OFFSET 0.000000 -0.402270 0.000000 
			CHANNELS 1 Zrotation
			JOINT LeftAnkle
			{
				OFFSET 0.000000 -0.404085 0.000000 
				CHANNELS 3 Zrotation Xrotation Yrotation
				End Site
				{
					OFFSET 0.204105 -0.089430 -0.008415 
				}
			}
		}
	}
}
MOTION
Frames: 17
Frame Time: 0.02
-0 0.95578 -0 181.81297 0 -3.62296 2.73049 1.9512 -3.57788 -40.35681 3.5027 2.70912 -18.05225 -74.20804 -87.35471 21.60424 78.27774 -17.21932 -2.86074 0.1245 70.96202 71.27646 24.15471 -69.43587 -33.12313 2.32734 -4.15803 3.95929 4.57325 -6.29702 -2.101 -3.92822 -8.31285 -2.39688 5.33627 -0.73284 -7.35826 5.44506 1.84754 -0.77361
9e-05 0.95579 0.00015 181.79903 0 -3.62394 2.717 1.95632 -3.57997 -40.36206 3.50433 2.70661 -18.14881 -74.26681 -86.78198 21.515 78.06429 -17.8364 -2.85914 0.09816 70.96747 71.29017 24.15375 -69.43589 -33.13033 2.3278 -4.15405 3.94827 4.5395 -6.28913 -2.111 -3.93089 -8.26641 -2.3934 5.32682 -0.73708 -7.36032 5.44331 1.85132 -0.75625
0.00019 0.9558 0.0003 181.78452 0 -3.62494 2.70328 1.96154 -3.58152 -40.36712 3.50614 2.70397 -18.24381 -74.32515 -86.21324 21.4268 77.85192 -18.44848 -2.85751 0.07159 70.97255 71.304 24.15323 -69.43594 -33.13736 2.32827 -4.14948 3.93715 4.50692 -6.282 -2.12104 -3.9335 -8.22033 -2.38968 5.31722 -0.74129 -7.36289 5.44166 1.8554 -0.73828
0.00029 0.95581 0.00045 181.76914 0 -3.62607 2.68913 1.96701 -3.58111 -40.37173 3.50872 2.70052 -18.33538 -74.38176 -85.65642 21.3412 77.64163 -19.04696 -2.85569 0.04458 70.97735 71.31838 24.15347 -69.4357 -33.144 2.32868 -4.14325 3.92597 4.47865 -6.27743 -2.13116 -3.93596 -8.17609 -2.38522 5.30745 -0.74573 -7.36681 5.44026 1.86012 -0.71906
0.00036 0.95582 0.00059 181.76019 0 -3.62655 2.678 1.97088 -3.5913 -40.37902 3.50729 2.70105 -18.44742 -74.44684 -85.03838 21.24094 77.42012 -19.71795 -2.85483 0.02077 70.98507 71.3298 24.14846 -69.43646 -33.15299 2.3293 -4.14674 3.91564 4.42748 -6.2588 -2.14068 -3.93932 -8.12316 -2.38498 5.29922 -0.74935 -7.36273 5.43735 1.86076 -0.7081
0.00049 0.95584 0.00076 181.73642 0 -3.62841 2.66002 1.97831 -3.57891 -40.38042 3.51429 2.69339 -18.5145 -74.49439 -84.54914 21.17241 77.22269 -20.23462 -2.85196 -0.01037 70.9856 71.34752 24.15541 -69.43547 -33.15681 2.32953 -4.12904 3.90317 4.42485 -6.27028 -2.15159 -3.94067 -8.08791 -2.37559 5.28729 -0.75445 -7.37612 5.43774 1.8705 -0.67859
0.00074 0.95589 0.001 181.68008 0 -3.63422 2.62579 1.99458 -3.50314 -40.36681 3.54603 2.66005 -18.46647 -74.48902 -84.42518 21.18837 77.08811 -20.32554 -2.84311 -0.05829 70.97349 71.38294 24.19024 -69.42742 -33.14699 2.32843 -4.05526 3.88698 4.56105 -6.36546 -2.16559 -3.93733 -8.10881 -2.34173 5.26809 -0.76573 -7.43534 5.44676 1.90245 -0.60461
0.00104 0.95594 0.00128 181.60721 0 -3.64141 2.58405 2.01461 -3.40483 -40.34697 3.58615 2.61892 -18.37044 -74.46662 -84.42886 21.23754 76.97873 -20.26028 -2.83235 -0.11428 70.95251 71.42453 24.23846 -69.41874 -33.13145 2.32704 -3.9595 3.86816 4.74568 -6.4911 -2.18118 -3.93185 -8.14631 -2.29844 5.24455 -0.77796 -7.51263 5.45917 1.94407 -0.51081
0.00133 0.956 0.00156 181.53635 0 -3.64789 2.54406 2.0336 -3.31721 -40.32925 3.62138 2.58335 -18.29159 -74.45514 -84.36835 21.27284 76.85953 -20.26683 -2.82268 -0.16891 70.93122 71.46335 24.28354 -69.41089 -33.11854 2.32584 -3.87216 3.84916 4.90509 -6.60252 -2.19655 -3.92678 -8.17135 -2.25894 5.22109 -0.78865 -7.5834 5.47039 1.98333 -0.4213
0.00157 0.95605 0.00175 181.4886 0 -3.65472 2.5114 2.04988 -3.2271 -40.31476 3.66072 2.53945 -18.23604 -74.43086 -84.33594 21.30059 76.73191 -20.27153 -2.81191 -0.21387 70.92936 71.5027 24.31487 -69.39779 -33.10699 2.32411 -3.79165 3.83616 5.07752 -6.71532 -2.20973 -3.92398 -8.21677 -2.22161 5.20577 -0.8048 -7.64731 5.4803 2.01436 -0.35079
0.00193 0.95611 0.00215 181.38895 0 -3.66114 2.46131 2.07258 -3.13762 -40.29174 3.69402 2.51081 -18.11586 -74.42841 -84.27287 21.35498 76.62979 -20.24086 -2.80317 -0.28079 70.88354 71.54157 24.37965 -69.39918 -33.08938 2.32381 -3.69145 3.80978 5.23498 -6.83274 -2.22793 -3.91606 -8.22415 -2.17745 5.17226 -0.80884 -7.72946 5.49354 2.06439 -0.23716
0.00262 0.95619 0.00307 181.14843 0 -3.66625 2.36824 2.11305 -3.04863 -40.24924 3.70408 2.52833 -17.86839 -74.49667 -84.1129 21.44969 76.57503 -20.16997 -2.79907 -0.40642 70.73058 71.58393 24.51936 -69.40868 -33.07216 2.32403 -3.54431 3.74943 5.33359 -6.95336 -2.25886 -3.89348 -8.11832 -2.11732 5.09118 -0.78741 -7.86026 5.51664 2.16839 0.00062
0.00345 0.95629 0.0042 180.8565 0 -3.6709 2.25724 2.15966 -2.96236 -40.19776 3.70861 2.56107 -17.54972 -74.58598 -83.91296 21.57524 76.54841 -20.06593 -2.79746 -0.55329 70.53159 71.62382 24.6947 -69.43856 -33.04593 2.32631 -3.3777 3.67526 5.41644 -7.078 -2.2949 -3.86599 -7.97432 -2.05059 4.9916 -0.75226 -8.00815 5.54266 2.29046 0.27929
0.00422 0.95638 0.00527 180.58922 0 -3.67566 2.15235 2.20287 -2.87925 -40.14884 3.71863 2.58547 -17.23831 -74.66202 -83.7203 21.70249 76.51966 -19.96368 -2.79554 -0.69115 70.34562 71.66147 24.86329 -69.48043 -33.01378 2.32997 -3.21875 3.60596 5.51032 -7.20215 -2.3291 -3.84151 -7.85057 -1.98643 4.89948 -0.71797 -8.14662 5.56636 2.40171 0.53267
0.00494 0.95646 0.00622 180.31612 0 -3.68079 2.05599 2.24886 -2.77666 -40.10661 3.71635 2.61563 -17.03297 -74.75458 -83.58272 21.7625 76.44589 -19.90942 -2.78967 -0.82897 70.19215 71.71598 24.99339 -69.43349 -33.02448 2.32397 -3.06425 3.54264 5.58989 -7.32163 -2.3614 -3.81385 -7.71543 -1.92353 4.81135 -0.70627 -8.29328 5.59447 2.52428 0.81491
0.00581 0.95656 0.00747 180.04291 0 -3.68513 1.93747 2.29037 -2.71578 -40.0478 3.7383 2.63749 -16.58817 -74.81611 -83.31338 21.97203 76.47336 -19.75265 -2.79317 -0.96881 69.96085 71.73163 25.21083 -69.5752 -32.94287 2.33842 -2.8959 3.46348 5.69448 -7.4515 -2.39877 -3.79143 -7.59436 -1.85686 4.71041 -0.64442 -8.42595 5.61392 2.62748 1.04668
0.00702 0.95667 0.00951 179.78385 0 -3.68651 1.764 2.31866 -2.76785 -39.95034 3.82822 2.63297 -15.5182 -74.80157 -82.73903 22.56502 76.76342 -19.29373 -2.81721 -1.13386 69.51962 71.66608 25.67048 -70.24205 -32.61686 2.41021 -2.69619 3.34493 5.87556 -7.60779 -2.44959 -3.7869 -7.52471 -1.77879 4.57987 -0.44557 -8.52226 5.60957 2.67224 1.12704
